<svg width="124" height="124" viewBox="0 0 124 124" fill="none" xmlns="http://www.w3.org/2000/svg"> <rect opacity="0.7" width="124" height="124" rx="36" fill="white"></rect> <mask id="mask0_1989_88732" style="mask-type:alpha" maskUnits="userSpaceOnUse" x="0" y="0" width="124" height="124"> <rect width="124" height="124" rx="36" fill="#F6EEFD"></rect> </mask> <g mask="url(#mask0_1989_88732)"> <circle cx="10" cy="76" r="7" fill="#626ADF" fill-opacity="0.1"></circle> <path opacity="0.2" d="M-25.922 124H187.886C188.391 119.546 187.886 113.607 171.964 111.628C153.01 108.659 142.395 98.4309 136.33 91.3376C131.022 85.5639 112.978 73.2248 83.2569 70.0575C46.1059 66.0984 28.6677 73.5217 18.8113 87.8734C8.95493 102.225 -0.143795 108.164 -13.7911 111.628C-24.7089 114.399 -26.4275 121.031 -25.922 124Z" fill="#DCDBE6"></path> </g> <path d="M20 36C20 31.5817 23.5817 28 28 28H96C100.418 28 104 31.5817 104 36V74H20V36Z" fill="#DCDBE6"></path> <path d="M25 39C25 35.6863 27.6863 33 31 33H93C96.3137 33 99 35.6863 99 39V69H25V39Z" fill="#DCDBE6"></path> <path d="M104 82C104 86.4183 100.418 90 96 90L28 90C23.5817 90 20 86.4183 20 82L20 74L104 74L104 82Z" fill="white"></path> <rect x="52" y="90" width="20" height="9" fill="#DCDBE6"></rect> <rect x="48" y="96" width="28" height="3" rx="1.5" fill="white"></rect> <circle cx="62" cy="80" r="2" fill="#DCDBE6"></circle> </svg>