<svg xmlns="http://www.w3.org/2000/svg" width="124" height="124" viewBox="0 0 124 124" fill="none"><rect width="124" height="124" rx="36" fill="white" fill-opacity="0.7"/><mask id="mask0_1989_89007" style="mask-type:alpha" maskUnits="userSpaceOnUse" x="0" y="0" width="124" height="124"><rect width="124" height="124" rx="36" fill="#F6EEFD"/></mask><g mask="url(#mask0_1989_89007)"><path opacity="0.2" d="M-25.8873 124.171H239.792C240.42 118.637 239.792 111.258 220.008 108.798C196.455 105.108 183.265 92.3992 175.728 83.5849C169.133 76.4106 146.71 61.0779 109.779 57.1422C63.6151 52.2226 41.9462 61.4468 29.6986 79.2803C17.451 97.1138 6.14489 104.493 -10.8133 108.798C-24.3799 112.241 -26.5154 120.482 -25.8873 124.171Z" fill="#DCDBE6"/><circle cx="44.34" cy="18" r="7" fill="#626ADF" fill-opacity="0.1"/></g><rect x="17.7238" y="36.9727" width="78.2161" height="59.0966" rx="8" transform="rotate(-11.6693 17.7238 36.9727)" fill="white"/><circle cx="70.8065" cy="42.0256" r="6.10547" transform="rotate(-11.6693 70.8065 42.0256)" fill="white"/><path d="M51.4466 53.8587C48.7729 51.0442 44.0734 52.0148 42.7334 55.6582L33.5158 80.7222C32.098 84.5781 35.4681 88.4907 39.4911 87.6599L94.3733 76.1108C98.7095 75.2152 100.047 69.6764 96.5979 66.901L83.9254 56.7013C81.3597 54.6365 77.5474 55.4238 76.0096 58.3362L68.7545 72.078L51.4466 53.8587Z" fill="white"/><rect x="25.6161" y="29.1562" width="78.2161" height="59.0966" rx="8" transform="rotate(5 25.6161 29.1562)" fill="#DCDBE6"/><circle cx="75.0186" cy="49.2237" r="6.10547" transform="rotate(5 75.0186 49.2237)" fill="white"/><path d="M53.0782 55.0057C51.3241 51.5426 46.5438 51.1243 44.215 54.2303L28.1952 75.597C25.7309 78.8841 27.837 83.599 31.9293 83.957L87.818 88.6361C92.2289 89.022 95.099 84.0997 92.5909 80.4514L83.3766 67.0453C81.5111 64.3313 77.6332 63.992 75.3246 66.3409L64.4325 77.4241L53.0782 55.0057Z" fill="white"/></svg>