<svg xmlns="http://www.w3.org/2000/svg" width="124" height="124" viewBox="0 0 124 124" fill="none"><rect opacity="0.7" width="124" height="124" rx="36" fill="white"/><mask id="mask0_1989_89052" style="mask-type:alpha" maskUnits="userSpaceOnUse" x="0" y="0" width="124" height="124"><rect width="124" height="124" rx="36" fill="#F6EEFD"/></mask><g mask="url(#mask0_1989_89052)"><circle cx="106.849" cy="35.6387" r="7" fill="#626ADF" fill-opacity="0.1"/><path opacity="0.2" d="M-25.8873 124.171H239.792C240.42 118.637 239.792 111.258 220.008 108.798C196.455 105.108 183.265 92.3992 175.728 83.5849C169.133 76.4106 146.71 61.0779 109.779 57.1422C63.6151 52.2226 41.9462 61.4468 29.6986 79.2803C17.451 97.1138 6.14489 104.493 -10.8133 108.798C-24.3799 112.241 -26.5154 120.482 -25.8873 124.171Z" fill="#DCDBE6"/></g><path d="M37.264 88.235C26.0865 88.235 17.0254 79.4256 17.0254 68.5586C17.0254 57.6917 26.0865 48.8822 37.264 48.8822C39.1506 48.8822 40.9769 49.1332 42.7095 49.6027C47.2608 41.3654 56.2064 35.7646 66.4975 35.7646C79.9078 35.7646 91.0333 45.2751 93.1278 57.737C100.928 58.6466 106.975 65.1024 106.975 72.9312C106.975 81.3833 99.9271 88.235 91.2335 88.235H37.264Z" fill="#DCDBE6"/><rect x="54" y="76" width="16.32" height="12.24" fill="white"/><path d="M62 58.9971L76.553 76.3178H47.4471L62 58.9971Z" fill="white"/></svg>